<svg width="101.000000" height="101.000000" viewBox="0 0 101 101" fill="none" xmlns="http://www.w3.org/2000/svg" xmlns:xlink="http://www.w3.org/1999/xlink">
	<desc>
			Created with Pixso.
	</desc>
	<defs/>
	<rect id="gift__273" width="101.000000" height="101.000000" fill="#FFFFFF" fill-opacity="0"/>
	<path id="Shape" d="M85.2188 101C90.4453 101 94.6875 96.758 94.6875 91.5312L94.6875 50.5L96.2656 50.5C98.8789 50.5 101 48.379 101 45.7656L101 36.2969C101 33.6835 98.8789 31.5625 96.2656 31.5625L72.5938 31.5625C81.3047 31.5625 88.375 24.4925 88.375 15.7812C88.375 7.07001 81.3047 0 72.5938 0L69.4375 0C61.9004 0 55.127 3.30775 50.5 8.55344C45.873 3.30775 39.0996 0 31.5625 0L28.4062 0C19.6953 0 12.625 7.07001 12.625 15.7812C12.625 24.4925 19.6953 31.5625 28.4062 31.5625L4.73438 31.5625C2.12109 31.5625 0 33.6835 0 36.2969L0 45.7656C0 48.379 2.12109 50.5 4.73438 50.5L6.3125 50.5L6.3125 91.5312C6.3125 96.758 10.5547 101 15.7812 101L85.2188 101ZM43.5508 21.6456C43.5508 15.2195 38.3359 10.0117 31.916 10.0117L29.3789 10.0117C26.1719 10.0117 23.5645 12.6187 23.5645 15.8255C23.5645 19.0385 26.1719 21.6456 29.3789 21.6456L43.5508 21.6456ZM77.4365 15.8255C77.4365 19.0385 74.8291 21.6456 71.6221 21.6456L57.4502 21.6456C57.4502 15.2195 62.665 10.0117 69.085 10.0117L71.6221 10.0117C74.8291 10.0117 77.4365 12.6187 77.4365 15.8255ZM44.1875 50.5003L44.1875 37.7869C44.1875 36.0446 45.6016 34.6306 47.3438 34.6306L53.6562 34.6306C55.3984 34.6306 56.8125 36.0446 56.8125 37.7869L56.8125 50.5003C56.8125 52.2425 55.3984 53.6565 53.6562 53.6565L47.3438 53.6565C45.6016 53.6565 44.1875 52.2425 44.1875 50.5003ZM56.8125 87.6744L56.8125 62.2413C56.8125 60.4991 55.3984 59.0851 53.6562 59.0851L47.3438 59.0851C45.6016 59.0851 44.1875 60.4991 44.1875 62.2413L44.1875 87.6744C44.1875 89.4166 45.6016 90.8306 47.3438 90.8306L53.6562 90.8306C55.3984 90.8306 56.8125 89.4166 56.8125 87.6744Z" clip-rule="evenodd" fill="#FFEE85" fill-opacity="1.000000" fill-rule="evenodd"/>
</svg>
